<svg width="685" height="684" viewBox="0 0 685 684" fill="none" xmlns="http://www.w3.org/2000/svg">
<path d="M342.967 64.0312C275.294 64.0341 209.83 88.1167 158.288 131.97C106.747 175.823 72.4911 236.586 61.6507 303.385C50.8104 370.184 64.0927 438.661 99.1211 496.563C134.149 554.465 188.638 598.014 252.837 619.417C267.087 621.911 272.431 613.362 272.431 605.88C272.431 599.111 272.074 576.668 272.074 552.8C200.469 565.98 181.944 535.344 176.244 519.313C169.919 503.722 159.893 489.905 147.032 479.057C137.057 473.713 122.807 460.532 146.675 460.176C155.789 461.165 164.53 464.337 172.158 469.422C179.786 474.507 186.075 481.355 190.494 489.388C194.392 496.39 199.633 502.554 205.917 507.528C212.202 512.501 219.406 516.185 227.117 518.369C234.827 520.553 242.893 521.195 250.852 520.256C258.811 519.318 266.507 516.818 273.498 512.9C274.732 498.411 281.189 484.865 291.667 474.783C228.256 467.658 161.994 443.076 161.994 334.066C161.594 305.741 172.045 278.337 191.206 257.473C182.493 232.856 183.513 205.84 194.056 181.949C194.056 181.949 217.924 174.468 272.43 211.161C319.064 198.336 368.295 198.336 414.928 211.161C469.433 174.112 493.302 181.949 493.302 181.949C503.847 205.84 504.866 232.856 496.152 257.473C515.37 278.301 525.831 305.73 525.364 334.066C525.364 443.432 458.746 467.658 395.335 474.783C402.136 481.676 407.374 489.953 410.694 499.05C414.013 508.148 415.336 517.853 414.572 527.507C414.572 565.626 414.215 596.262 414.215 605.881C414.215 613.362 419.559 622.268 433.809 619.418C497.895 597.84 552.227 554.189 587.106 496.258C621.985 438.326 635.141 369.884 624.226 303.15C613.31 236.415 579.034 175.732 527.515 131.932C475.996 88.132 410.588 64.0664 342.967 64.0312Z" fill="#EAB16C"/>
</svg>
