<svg width="548" height="650" viewBox="0 0 548 650" fill="none" xmlns="http://www.w3.org/2000/svg">
<g clip-path="url(#clip0_105_80)">
<path d="M508.107 40.6094H38.963C17.4662 40.6094 0 59.0117 0 81.6021V568.184C0 590.774 17.4662 609.176 38.963 609.176H508.107C529.604 609.176 547.192 590.774 547.192 568.184V81.6021C547.192 59.0117 529.604 40.6094 508.107 40.6094ZM165.379 527.953H84.2774V256.614H165.501V527.953H165.379ZM124.828 219.556C98.8122 219.556 77.8039 197.6 77.8039 170.694C77.8039 143.789 98.8122 121.833 124.828 121.833C150.722 121.833 171.853 143.789 171.853 170.694C171.853 197.727 150.844 219.556 124.828 219.556ZM469.388 527.953H388.287V395.964C388.287 364.49 387.676 324.005 346.148 324.005C303.887 324.005 297.414 358.271 297.414 393.679V527.953H216.312V256.614H294.116V293.672H295.215C306.086 272.351 332.59 249.888 372.042 249.888C454.121 249.888 469.388 306.11 469.388 379.211V527.953Z" fill="#EAB16C"/>
</g>
<defs>
<clipPath id="clip0_105_80">
<rect width="547.192" height="649.791" fill="white"/>
</clipPath>
</defs>
</svg>
