<svg width="512" height="513" viewBox="0 0 512 513" fill="none" xmlns="http://www.w3.org/2000/svg">
<path fill-rule="evenodd" clip-rule="evenodd" d="M21.3261 128.547C21.3227 128.757 21.3223 128.968 21.3251 129.178V384.917C21.3251 420.165 50.0763 448.917 85.3251 448.917H426.658C461.907 448.917 490.658 420.165 490.658 384.917V129.18C490.661 128.968 490.661 128.756 490.657 128.543C490.455 93.4651 461.783 64.9165 426.658 64.9165H85.3251C50.1997 64.9165 21.5265 93.4668 21.3261 128.547ZM66.2654 119.401C69.7935 112.424 77.0486 107.583 85.3251 107.583H426.658C434.935 107.583 442.19 112.424 445.718 119.401L255.992 252.209L66.2654 119.401ZM447.992 169.891V384.917C447.992 396.601 438.343 406.25 426.658 406.25H85.3251C73.6405 406.25 63.9917 396.601 63.9917 384.917V169.89L243.758 295.727C251.103 300.869 260.88 300.869 268.226 295.727L447.992 169.891Z" fill="white"/>
</svg>
