<svg width="512" height="512" viewBox="0 0 512 512" fill="none" xmlns="http://www.w3.org/2000/svg">
<path fill-rule="evenodd" clip-rule="evenodd" d="M277.334 384.001H426.667C462.014 384.001 490.667 355.347 490.667 320.001V106.667C490.667 71.3213 462.014 42.6675 426.667 42.6675H85.334C49.9878 42.6675 21.334 71.3213 21.334 106.667V320.001C21.334 355.347 49.9878 384.001 85.334 384.001H234.667V426.667H170.667C158.885 426.667 149.334 436.219 149.334 448.001C149.334 459.783 158.885 469.334 170.667 469.334H341.334C353.116 469.334 362.667 459.783 362.667 448.001C362.667 436.219 353.116 426.667 341.334 426.667H277.334V384.001ZM85.334 85.3341C73.5519 85.3341 64.0006 94.8854 64.0006 106.667V320.001C64.0006 331.783 73.5519 341.334 85.334 341.334H426.667C438.449 341.334 448.001 331.783 448.001 320.001V106.667C448.001 94.8854 438.449 85.3341 426.667 85.3341H85.334Z" fill="#7A32B5"/>
</svg>
