<svg width="512" height="512" viewBox="0 0 512 512" fill="none" xmlns="http://www.w3.org/2000/svg">
<path fill-rule="evenodd" clip-rule="evenodd" d="M255.999 42.666C197.089 42.666 149.332 90.4223 149.332 149.333C149.332 208.243 197.089 255.999 255.999 255.999C314.909 255.999 362.666 208.243 362.666 149.333C362.666 90.4223 314.909 42.666 255.999 42.666ZM191.999 149.333C191.999 113.986 220.653 85.3327 255.999 85.3327C291.345 85.3327 319.999 113.986 319.999 149.333C319.999 184.679 291.345 213.333 255.999 213.333C220.653 213.333 191.999 184.679 191.999 149.333Z" fill="white"/>
<path d="M170.666 298.666C142.376 298.666 115.245 309.904 95.241 329.908C75.2371 349.912 63.999 377.043 63.999 405.333V447.999C63.999 459.781 73.5503 469.333 85.3324 469.333C97.1144 469.333 106.666 459.781 106.666 447.999V405.333C106.666 388.359 113.409 372.08 125.411 360.078C137.413 348.076 153.692 341.333 170.666 341.333H341.332C358.306 341.333 374.585 348.076 386.587 360.078C398.589 372.08 405.332 388.359 405.332 405.333V447.999C405.332 459.781 414.884 469.333 426.666 469.333C438.448 469.333 447.999 459.781 447.999 447.999V405.333C447.999 377.043 436.761 349.912 416.757 329.908C396.753 309.904 369.622 298.666 341.332 298.666H170.666Z" fill="white"/>
</svg>
