<svg width="486" height="462" viewBox="0 0 486 462" fill="none" xmlns="http://www.w3.org/2000/svg">
<path d="M232.237 6.79325C236.638 -2.1236 249.354 -2.12356 253.755 6.79328L319.311 139.602C321.057 143.14 324.431 145.593 328.335 146.164L474.954 167.594C484.792 169.032 488.712 181.125 481.59 188.062L375.517 291.377C372.687 294.134 371.395 298.107 372.063 302.001L397.094 447.943C398.775 457.746 388.486 465.22 379.683 460.591L248.581 391.646C245.085 389.807 240.908 389.807 237.411 391.646L106.309 460.591C97.5064 465.22 87.2172 457.746 88.8984 447.943L113.929 302.001C114.597 298.107 113.305 294.134 110.475 291.377L4.40194 188.062C-2.72025 181.125 1.20065 169.032 11.0383 167.594L157.657 146.164C161.561 145.593 164.935 143.14 166.681 139.602L232.237 6.79325Z" fill="#F9C651"/>
</svg>
