<svg width="582" height="564" viewBox="0 0 582 564" fill="none" xmlns="http://www.w3.org/2000/svg">
<path d="M291.286 0.291992C130.7 0.291992 0.589844 126.336 0.589844 281.904C0.589844 437.471 130.7 563.515 291.286 563.515C451.872 563.515 581.982 437.471 581.982 281.904C581.982 126.336 451.872 0.291992 291.286 0.291992ZM426.084 191.856C421.747 236.369 402.758 344.471 393.147 394.321C389.044 415.442 381.073 422.482 373.337 423.164C356.458 424.64 343.681 412.376 327.271 401.929C301.718 385.691 287.183 375.585 262.451 359.688C233.733 341.406 252.37 331.299 268.663 314.834C273 310.519 347.315 244.999 348.722 239.094C348.956 238.299 349.073 235.574 347.315 234.098C345.557 232.622 343.095 233.189 341.337 233.53C338.758 234.06 297.889 260.215 218.729 311.995C207.164 319.717 196.653 323.464 187.198 323.237C176.766 323.01 156.839 317.559 141.952 312.904C123.784 307.226 109.249 304.16 110.539 294.395C111.164 289.322 118.392 284.137 132.224 278.838C216.932 243.106 273.43 219.525 301.718 208.094C382.48 175.618 399.242 169.94 410.143 169.713C412.605 169.713 417.879 170.281 421.396 173.006C423.691 174.961 425.153 177.673 425.498 180.614C426.132 184.328 426.329 188.099 426.084 191.856Z" fill="#EAB16C"/>
</svg>
